<?xml version="1.0" encoding="UTF-8"?> <!-- Generator: Adobe Illustrator 23.0.4, SVG Export Plug-In . SVG Version: 6.00 Build 0) --> <svg xmlns="http://www.w3.org/2000/svg" xmlns:xlink="http://www.w3.org/1999/xlink" id="Layer_1" x="0px" y="0px" viewBox="0 0 152 127" style="enable-background:new 0 0 152 127;" xml:space="preserve"> <style type="text/css"> .st0{clip-path:url(#SVGID_2_);fill:#FFFFFF;} .st1{clip-path:url(#SVGID_2_);fill:none;stroke:#9DA8A3;stroke-width:1.093;stroke-miterlimit:10;} .st2{clip-path:url(#SVGID_2_);fill:#9DA8A3;} .st3{fill:#9DA8A3;} .st4{clip-path:url(#SVGID_4_);fill:#9DA8A3;} .st5{clip-path:url(#SVGID_6_);fill:#C7D6CB;} .st6{fill:#C7D6CB;} </style> <g> <defs> <rect id="SVGID_1_" x="5" y="5.8" width="141.13" height="113.2"></rect> </defs> <clipPath id="SVGID_2_"> <use xlink:href="#SVGID_1_" style="overflow:visible;"></use> </clipPath> <path class="st0" d="M57.74,6.35h22.6v20.22H67.58c-0.21,2,0.21,4.13,1.25,6.38c1.85,4.2,5.59,7.07,11.21,8.61v7.99 c-7.17-1.38-12.67-4.27-16.52-8.65c-3.85-4.38-5.77-10.49-5.77-18.33V6.35z"></path> <path class="st1" d="M57.74,6.35h22.6v20.22H67.58c-0.21,2,0.21,4.13,1.25,6.38c1.85,4.2,5.59,7.07,11.21,8.61v7.99 c-7.17-1.38-12.67-4.27-16.52-8.65c-3.85-4.38-5.77-10.49-5.77-18.33V6.35z"></path> <path class="st0" d="M63.96,8.26h22.6v20.22H73.8c-0.21,2,0.21,4.13,1.25,6.38c1.85,4.2,5.59,7.07,11.21,8.61v7.99 c-7.17-1.38-12.67-4.27-16.52-8.65c-3.85-4.38-5.77-10.49-5.77-18.33V8.26z"></path> <path class="st1" d="M63.96,8.26h22.6v20.22H73.8c-0.21,2,0.21,4.13,1.25,6.38c1.85,4.2,5.59,7.07,11.21,8.61v7.99 c-7.17-1.38-12.67-4.27-16.52-8.65c-3.85-4.38-5.77-10.49-5.77-18.33V8.26z"></path> <line class="st1" x1="57.74" y1="6.35" x2="63.96" y2="8.26"></line> <line class="st1" x1="80.34" y1="6.35" x2="86.56" y2="8.26"></line> <path class="st2" d="M44.36,108.04c-0.14-1.28-0.9-1.96-2.24-1.96c-1.54,0.02-2.3,0.82-2.3,1.94c0,1.36,1.08,2,2.74,2v1.88h-0.7 c-1.6,0-2.72,0.94-2.72,2.54c0,1.5,1.22,2.56,2.86,2.56c1.78,0,2.72-1.08,2.72-2.76v-4.2h3.36v1.8H46.7v2.4 c0,2.94-1.72,4.72-4.7,4.72c-3.32,0-5.14-2.06-5.14-4.44c0-1.78,0.96-3.08,2.54-3.7c-1.06-0.54-1.68-1.58-1.66-2.8 c0-2.02,1.64-3.68,4.36-3.68c2.74,0.02,4.06,1.24,4.2,3.7H44.36z"></path> <path class="st2" d="M56.95,114.76c0.1,1.58,1.82,2.16,3.34,2.16c1.48,0,3.24-0.44,3.24-2.18c0-1.84-1.9-2.02-3.52-2.18 c-2.56-0.22-5.1-1.04-5.1-3.84c0-2.88,2.54-4.24,5.26-4.24c2.66,0,5.18,1.2,5.24,4.06h-2.2c-0.1-1.5-1.68-1.98-3.06-1.98 c-1.28,0-2.94,0.52-2.94,2.1c0,1.58,1.58,1.78,3.2,2c2.84,0.32,5.44,0.88,5.44,4.1c0,3.08-2.9,4.24-5.52,4.24 c-2.74,0.06-5.6-1.3-5.66-4.24H56.95z"></path> </g> <polygon class="st3" points="66.17,104.74 66.17,106.8 70.23,106.8 70.23,118.74 72.51,118.74 72.51,106.8 76.57,106.8 76.57,104.74 "></polygon> <g> <defs> <rect id="SVGID_3_" x="5" y="5.8" width="141.13" height="113.2"></rect> </defs> <clipPath id="SVGID_4_"> <use xlink:href="#SVGID_3_" style="overflow:visible;"></use> </clipPath> <path class="st4" d="M83.27,116.78c2.62,0,4.8-1.78,4.8-5.04c0-3.2-2.16-5.06-4.78-5.06c-2.64,0-4.8,1.82-4.8,5.06 C78.49,115,80.63,116.78,83.27,116.78 M83.23,118.98c-3.84,0-7.1-2.68-7.1-7.24c0-4.56,3.34-7.24,7.14-7.24 c3.82,0,7.12,2.68,7.12,7.24C90.39,116,87.45,118.98,83.23,118.98"></path> <path class="st4" d="M98.41,111.94c1.52,0,2.62-1.1,2.62-2.62c0-1.46-1.08-2.56-2.62-2.56h-3.46v5.18H98.41z M103.91,118.4v0.34 h-2.36l-3.48-4.88h-3.08v4.88h-2.34v-14h5.78c3.04,0,4.86,2.06,4.86,4.56c0,1.94-1.16,3.56-2.94,4.2L103.91,118.4z"></path> </g> <polygon class="st3" points="114.43,104.74 112.61,107.76 110.87,111.08 110.79,111.08 109.11,107.86 107.23,104.74 104.73,104.74 104.73,105.07 109.67,113.06 109.67,118.74 111.99,118.74 111.99,113.06 116.91,105.07 116.91,104.74 "></polygon> <g> <defs> <rect id="SVGID_5_" x="5" y="5.8" width="141.13" height="113.2"></rect> </defs> <clipPath id="SVGID_6_"> <use xlink:href="#SVGID_5_" style="overflow:visible;"></use> </clipPath> <path class="st5" d="M11.27,82.95c0,1.73,1.98,2.59,3.99,2.59c1.87,0,3.85-0.86,3.85-2.38c0-2.41-2.81-2.52-4.64-2.63 c-4.61-0.29-9.22-2.12-9.22-7.38c0-5.47,4.64-8.24,9.79-8.24c4.86,0,9.79,2.77,9.68,8.24h-6.15c-0.04-1.73-1.66-2.45-3.42-2.45 c-1.48,0-3.42,0.4-3.42,2.3c0,1.69,1.44,2.09,3.85,2.34c5.36,0.47,10.04,1.73,10.04,7.85c0,5.29-5.15,8.06-10.3,8.06 c-5.33,0-10.44-2.66-10.33-8.31H11.27z"></path> </g> <polygon class="st6" points="36.25,71.25 36.25,65.49 54.97,65.49 54.97,71.25 48.81,71.25 48.81,90.69 42.44,90.69 42.44,71.25 "></polygon> <polygon class="st6" points="80.56,80.72 80.56,90.69 73.98,90.69 73.98,80.72 65.52,66.47 65.52,65.49 72.57,65.49 "></polygon> <polygon class="st6" points="106.74,84.79 115.84,84.79 115.84,90.69 100.15,90.69 100.15,65.49 106.74,65.49 "></polygon> <polygon class="st6" points="130.08,65.49 130.08,90.69 146.13,90.69 146.13,84.68 136.66,84.68 136.66,80.58 145.09,80.58 145.09,74.82 136.66,74.82 136.66,71.22 145.81,71.22 145.81,65.49 "></polygon> </svg> 